HIERARCHY
ROOT reference
{
  OFFSET 0 0 0
  CHANNELS 6 Xposition Yposition Zposition Zrotation Xrotation Yrotation
  JOINT Hips
  {
    OFFSET -42.1216 81.686 33.4784
    CHANNELS 6 Xposition Yposition Zposition Zrotation Xrotation Yrotation
    JOINT Spine
    {
      OFFSET 0 7.88368 0
      CHANNELS 6 Xposition Yposition Zposition Zrotation Xrotation Yrotation
      JOINT Spine1
      {
        OFFSET 0 24.7763 0
        CHANNELS 6 Xposition Yposition Zposition Zrotation Xrotation Yrotation
        JOINT Neck
        {
          OFFSET 0 24.6746 2.24314
          CHANNELS 6 Xposition Yposition Zposition Zrotation Xrotation Yrotation
          JOINT Head
          {
            OFFSET 0 13.4599 -1.92285
            CHANNELS 6 Xposition Yposition Zposition Zrotation Xrotation Yrotation
            End Site
            {
              OFFSET 0 24.0356 0
            }
          }
        }
        JOINT LeftShoulder
        {
          OFFSET 3.81022 22.3233 -0.325006
          CHANNELS 6 Xposition Yposition Zposition Zrotation Xrotation Yrotation
          JOINT LeftArm
          {
            OFFSET 12.5606 0 0
            CHANNELS 6 Xposition Yposition Zposition Zrotation Xrotation Yrotation
            JOINT LeftForeArm
            {
              OFFSET 28.8068 0 0
              CHANNELS 6 Xposition Yposition Zposition Zrotation Xrotation Yrotation
              JOINT LeftHand
              {
                OFFSET 23.8139 0 0
                CHANNELS 6 Xposition Yposition Zposition Zrotation Xrotation Yrotation
                End Site
                {
                  OFFSET 14.4214 0 0
                }
              }
            }
          }
        }
        JOINT RightShoulder
        {
          OFFSET -3.82306 22.3233 -0.325006
          CHANNELS 6 Xposition Yposition Zposition Zrotation Xrotation Yrotation
          JOINT RightArm
          {
            OFFSET -12.5606 0 0
            CHANNELS 6 Xposition Yposition Zposition Zrotation Xrotation Yrotation
            JOINT RightForeArm
            {
              OFFSET -28.8068 0 0
              CHANNELS 6 Xposition Yposition Zposition Zrotation Xrotation Yrotation
              JOINT RightHand
              {
                OFFSET -23.8139 0 0
                CHANNELS 6 Xposition Yposition Zposition Zrotation Xrotation Yrotation
                End Site
                {
                  OFFSET -14.4214 0 0
                }
              }
            }
          }
        }
      }
    }
    JOINT LeftUpLeg
    {
      OFFSET 9.61425 0 0
      CHANNELS 6 Xposition Yposition Zposition Zrotation Xrotation Yrotation
      JOINT LeftLeg
      {
        OFFSET 0 -41.4642 0
        CHANNELS 6 Xposition Yposition Zposition Zrotation Xrotation Yrotation
        JOINT LeftFoot
        {
          OFFSET 0 -34.276 0
          CHANNELS 6 Xposition Yposition Zposition Zrotation Xrotation Yrotation
          JOINT LeftToeBase
          {
            OFFSET 0 -6.24926 14.4214
            CHANNELS 6 Xposition Yposition Zposition Zrotation Xrotation Yrotation
            End Site
            {
              OFFSET 0 0 3.8457
            }
          }
        }
      }
    }
    JOINT RightUpLeg
    {
      OFFSET -9.61425 0 0
      CHANNELS 6 Xposition Yposition Zposition Zrotation Xrotation Yrotation
      JOINT RightLeg
      {
        OFFSET 0 -41.4642 0
        CHANNELS 6 Xposition Yposition Zposition Zrotation Xrotation Yrotation
        JOINT RightFoot
        {
          OFFSET 0 -34.276 0
          CHANNELS 6 Xposition Yposition Zposition Zrotation Xrotation Yrotation
          JOINT RightToeBase
          {
            OFFSET 0 -6.24926 14.4214
            CHANNELS 6 Xposition Yposition Zposition Zrotation Xrotation Yrotation
            End Site
            {
              OFFSET 0 0 3.8457
            }
          }
        }
      }
    }
  }
}
MOTION
Frames:	4
Frame Time:	0.004
0 0 0 0 0 -0 -11.6054 80.0619 -200.038 0.347593 -2.19806 1.18509 8.88178e-016 7.88368 0 -0.471142 0.883047 0.132551 -8.88178e-016 24.7763 2.84217e-014 0.317157 -8.34235 0.14091 -1.77636e-015 24.6746 2.24314 5.74306 11.7255 -1.6848 0 13.4599 -1.92285 1.10307 3.74895 -1.87565 3.81022 22.3233 -0.325006 16.6167 2.34046 7.84943 12.5606 0 0 -18.2569 -3.35147 -2.36741 28.8068 -2.84217e-014 0 1.75045 0.281255 0.903414 23.8139 0 0 -7.70113 0.429188 -2.40594 -3.82306 22.3233 -0.325006 -16.3339 -1.85765 11.739 -12.5606 0 0 11.9243 -4.30933 -3.76811 -28.8068 0 0 -2.82669 -2.79185 6.30639 -23.8139 2.84217e-014 0 1.47849 -2.60327 2.55991 9.61425 1.42109e-014 0 2.12246 9.6749 -0.535512 0 -41.4642 -2.84217e-014 -8.92169 -6.09611 1.43503 0 -34.276 -2.84217e-014 6.86528 -1.93019 17.2898 0 -6.24926 14.4214 -1.2424e-017 -4.96962e-017 3.18055e-015 -9.61425 -1.42109e-014 -2.84217e-014 -1.68104 10.5647 -4.09199 0 -41.4642 -2.84217e-014 4.38102 -8.93574 -3.25718 0 -34.276 0 -4.01728 -1.11816 -12.2446 0 -6.24926 14.4214 1.98785e-016 -3.97569e-016 -3.18055e-015 
0 0 0 0 0 -0 -11.6054 80.0619 -200.038 0.347593 -2.19806 1.18509 8.88178e-016 7.88368 0 -0.47148 0.891989 0.132552 -8.88178e-016 24.7763 0 0.314996 -8.3425 0.14091 0 24.6746 2.24314 5.75109 11.7256 -1.67906 1.77636e-015 13.4599 -1.92285 1.08011 3.74895 -1.87284 3.81022 22.3233 -0.325006 16.6119 2.34046 7.84943 12.5606 2.84217e-014 0 -18.2665 -3.33752 -2.36738 28.8068 0 0 1.74614 0.281255 0.907199 23.8139 0 2.84217e-014 -7.67325 0.429186 -2.41209 -3.82306 22.3233 -0.325006 -16.3309 -1.85897 11.739 -12.5606 0 -2.84217e-014 11.9249 -4.30941 -3.75066 -28.8068 0 0 -2.7552 -2.79124 6.3402 -23.8139 2.84217e-014 0 1.07755 -2.61512 2.51982 9.61425 1.42109e-014 0 2.12057 9.67491 -0.524289 0 -41.4642 -2.84217e-014 -8.92389 -6.09616 1.41434 8.88178e-016 -34.276 0 6.8634 -1.93014 17.2946 1.42109e-014 -6.24926 14.4214 4.96962e-017 4.96962e-017 6.36111e-015 -9.61425 -1.42109e-014 -2.84217e-014 -1.68104 10.5647 -4.09199 0 -41.4642 -2.84217e-014 4.38514 -8.93597 -3.23067 0 -34.276 -2.84217e-014 -4.02771 -1.11808 -12.264 0 -6.24926 14.4214 2.98177e-016 0 3.18055e-015 
0 0 0 0 0 -0 -11.6054 80.0619 -200.038 0.347593 -2.19806 1.18509 8.88178e-016 7.88368 0 -0.450032 0.914525 0.132553 -8.88178e-016 24.7763 -2.84217e-014 0.247551 -8.36455 0.140918 0 24.6746 2.24314 5.79327 11.7394 -1.67045 0 13.4599 -1.92285 1.07464 3.73723 -1.8654 3.81022 22.3233 -0.325006 16.6488 2.34796 7.84557 12.5606 0 2.84217e-014 -18.2723 -3.32773 -2.36735 28.8068 2.84217e-014 0 1.73775 0.2844 0.915245 23.8139 0 0 -7.68085 0.433561 -2.42471 -3.82306 22.3233 -0.325006 -16.304 -1.84438 11.7389 -12.5606 0 2.84217e-014 11.9451 -4.31227 -3.75208 -28.8068 0 2.84217e-014 -2.77769 -2.80499 6.38244 -23.8139 0 0 1.09694 -2.62635 2.5027 9.61425 1.42109e-014 0 2.12258 9.6749 -0.536263 0 -41.4642 0 -8.9213 -6.0961 1.43875 -8.88178e-016 -34.276 0 6.89323 -1.93044 17.2651 1.42109e-014 -6.24926 14.4214 -1.2424e-017 -1.49089e-016 6.36111e-015 -9.61425 -1.42109e-014 -2.84217e-014 -1.68104 10.5647 -4.09199 0 -41.4642 -2.84217e-014 4.37979 -8.93567 -3.26512 0 -34.276 0 -3.98736 -1.11813 -12.253 0 -6.24926 14.4214 2.98177e-016 0 -6.36111e-015 
0 0 0 0 0 -0 -11.6054 80.0619 -200.038 0.347593 -2.19806 1.18509 8.88178e-016 7.88368 0 -0.451971 0.911558 0.132553 0 24.7763 0 0.247229 -8.35896 0.140916 -8.88178e-016 24.6746 2.24314 5.78693 11.7345 -1.66287 -1.77636e-015 13.4599 -1.92285 1.07941 3.74508 -1.85699 3.81022 22.3233 -0.325006 16.6513 2.35127 7.83967 12.5606 0 0 -18.2906 -3.31154 -2.35589 28.8068 0 -2.84217e-014 1.76592 0.170459 0.89214 23.8139 0 -2.84217e-014 -7.5727 0.320945 -2.4796 -3.82306 22.3233 -0.325006 -16.3056 -1.83804 11.7375 -12.5606 0 0 11.9468 -4.32443 -3.75006 -28.8068 -2.84217e-014 0 -2.68648 -2.46634 6.41119 -23.8139 -2.84217e-014 0 0.180973 -2.31264 2.12024 9.61425 1.42109e-014 0 2.12292 9.67489 -0.538281 -4.44089e-016 -41.4642 0 -8.92399 -6.09571 1.41349 -8.88178e-016 -34.276 0 6.87778 -1.93797 17.3052 1.42109e-014 -6.24926 14.4214 -4.96962e-017 -1.49089e-016 -3.18055e-015 -9.61425 -1.42109e-014 -2.84217e-014 -1.68345 10.5648 -4.07886 0 -41.4642 0 4.38235 -8.93582 -3.24865 0 -34.276 -2.84217e-014 -3.99204 -1.11804 -12.2724 0 -6.24926 14.4214 9.93923e-017 3.97569e-016 6.36111e-015 
